<svg xmlns="http://www.w3.org/2000/svg" xmlns:xlink="http://www.w3.org/1999/xlink" id="Layer_1" width="504" height="288" x="0" y="0" enable-background="new 0 0 504 288" version="1.1" viewBox="0 0 504 288" xml:space="preserve"><g><rect width="504" height="288" x="0" y=".001" fill="#FFF"/><g><path fill="#29B8FF" d="M486.574,270.962H17.425V17.04h469.149V270.962z M19.425,268.962h465.149V19.04H19.425V268.962z"/></g><g><defs><rect id="SVGID_1_" width="504" height="288" x="0" y=".001"/></defs><clipPath id="SVGID_2_"><use overflow="visible" xlink:href="#SVGID_1_"/></clipPath><g clip-path="url(#SVGID_2_)"><g><linearGradient id="SVGID_3_" x1="375.602" x2="367.461" y1="148.933" y2="148.933" gradientUnits="userSpaceOnUse"><stop offset="0" style="stop-color:#0096ff"/><stop offset=".632" style="stop-color:#36c2ff"/><stop offset="1" style="stop-color:#50d7ff"/></linearGradient><circle cx="371.531" cy="148.933" r="4.07" fill="url(#SVGID_3_)"/></g><g><linearGradient id="SVGID_4_" x1="405.413" x2="383.922" y1="76.124" y2="76.124" gradientUnits="userSpaceOnUse"><stop offset="0" style="stop-color:#0096ff"/><stop offset=".632" style="stop-color:#36c2ff"/><stop offset="1" style="stop-color:#50d7ff"/></linearGradient><path fill="url(#SVGID_4_)" d="M397.554,65.997v6.623v0.618h0.618h6.623v5.771h-6.623h-0.618v0.618v6.624h-5.772v-6.624V79.01 h-0.617h-6.624v-5.771h6.624h0.617V72.62v-6.623H397.554 M398.172,65.379h-7.008v7.241h-7.242v7.008h7.242v7.242h7.008v-7.242 h7.241V72.62h-7.241V65.379L398.172,65.379z"/></g><g><g><linearGradient id="SVGID_5_" x1="23.669" x2="2.298" y1="216.26" y2="216.26" gradientUnits="userSpaceOnUse"><stop offset="0" style="stop-color:#0096ff"/><stop offset=".632" style="stop-color:#36c2ff"/><stop offset="1" style="stop-color:#50d7ff"/></linearGradient><polygon fill="url(#SVGID_5_)" points="23.669 212.775 16.468 212.775 16.468 205.574 9.499 205.574 9.499 212.775 2.298 212.775 2.298 219.744 9.499 219.744 9.499 226.945 16.468 226.945 16.468 219.744 23.669 219.744"/></g></g><g><linearGradient id="SVGID_6_" x1="449.723" x2="445.803" y1="15.95" y2="15.95" gradientUnits="userSpaceOnUse"><stop offset="0" style="stop-color:#0096ff"/><stop offset=".632" style="stop-color:#36c2ff"/><stop offset="1" style="stop-color:#50d7ff"/></linearGradient><circle cx="447.763" cy="15.95" r="1.96" fill="url(#SVGID_6_)"/></g><g><linearGradient id="SVGID_7_" x1="478.654" x2="428.383" y1="56.615" y2="56.615" gradientUnits="userSpaceOnUse"><stop offset="0" style="stop-color:#0096ff"/><stop offset=".632" style="stop-color:#36c2ff"/><stop offset="1" style="stop-color:#50d7ff"/></linearGradient><path fill="url(#SVGID_7_)" d="M460.27,32.925v15.494v1.446h1.445h15.494v13.501h-15.494h-1.445v1.446v15.493h-13.502V64.812 v-1.446h-1.445h-15.494V49.865h15.494h1.445v-1.446V32.925H460.27 M461.715,31.479h-16.393v16.939h-16.939v16.393h16.939v16.939 h16.393V64.812h16.939V48.419h-16.939V31.479L461.715,31.479z"/></g><g><linearGradient id="SVGID_8_" x1="102.544" x2="22.138" y1="238.419" y2="238.419" gradientUnits="userSpaceOnUse"><stop offset="0" style="stop-color:#0096ff"/><stop offset=".632" style="stop-color:#36c2ff"/><stop offset="1" style="stop-color:#50d7ff"/></linearGradient><path fill="url(#SVGID_8_)" d="M73.138,200.528v24.781v2.313h2.313h24.781v21.595H75.451h-2.313v2.313v24.78H51.543v-24.78 v-2.313h-2.312H24.45v-21.595h24.781h2.312v-2.313v-24.781H73.138 M75.451,198.216H49.231v27.094H22.138v26.22h27.094v27.093 h26.219v-27.093h27.093v-26.22H75.451V198.216L75.451,198.216z"/></g><g><linearGradient id="SVGID_9_" x1="161.968" x2="142.402" y1="261.481" y2="261.481" gradientUnits="userSpaceOnUse"><stop offset="0" style="stop-color:#0096ff"/><stop offset=".632" style="stop-color:#36c2ff"/><stop offset="1" style="stop-color:#50d7ff"/></linearGradient><polygon fill="url(#SVGID_9_)" points="161.968 258.291 155.375 258.291 155.375 251.698 148.995 251.698 148.995 258.291 142.402 258.291 142.402 264.671 148.995 264.671 148.995 271.264 155.375 271.264 155.375 264.671 161.968 264.671"/></g><g><linearGradient id="SVGID_10_" x1="257.971" x2="254.95" y1="99.436" y2="99.436" gradientUnits="userSpaceOnUse"><stop offset="0" style="stop-color:#0096ff"/><stop offset=".632" style="stop-color:#36c2ff"/><stop offset="1" style="stop-color:#50d7ff"/></linearGradient><circle cx="256.46" cy="99.436" r="1.51" fill="url(#SVGID_10_)"/></g><g><linearGradient id="SVGID_11_" x1="357.26" x2="322.191" y1="49.271" y2="49.271" gradientUnits="userSpaceOnUse"><stop offset="0" style="stop-color:#0096ff"/><stop offset=".632" style="stop-color:#36c2ff"/><stop offset="1" style="stop-color:#50d7ff"/></linearGradient><polygon fill="url(#SVGID_11_)" points="357.26 43.554 345.443 43.554 345.443 31.737 334.008 31.737 334.008 43.554 322.191 43.554 322.191 54.989 334.008 54.989 334.008 66.805 345.443 66.805 345.443 54.989 357.26 54.989"/></g><g><linearGradient id="SVGID_12_" x1="146.268" x2="108.52" y1="222.825" y2="222.825" gradientUnits="userSpaceOnUse"><stop offset="0" style="stop-color:#0096ff"/><stop offset=".632" style="stop-color:#36c2ff"/><stop offset="1" style="stop-color:#50d7ff"/></linearGradient><path fill="url(#SVGID_12_)" d="M132.463,205.037v11.634v1.085h1.085h11.633v10.138h-11.633h-1.085v1.086v11.634h-10.138 v-11.634v-1.086h-1.086h-11.633v-10.138h11.633h1.086v-1.085v-11.634H132.463 M133.548,203.951h-12.309v12.72h-12.719v12.309 h12.719v12.719h12.309v-12.719h12.719v-12.309h-12.719V203.951L133.548,203.951z"/></g><g><linearGradient id="SVGID_13_" x1="369.217" x2="343.648" y1="84.543" y2="84.543" gradientUnits="userSpaceOnUse"><stop offset="0" style="stop-color:#0096ff"/><stop offset=".632" style="stop-color:#36c2ff"/><stop offset="1" style="stop-color:#50d7ff"/></linearGradient><polygon fill="url(#SVGID_13_)" points="369.217 80.374 360.601 80.374 360.601 71.759 352.264 71.759 352.264 80.374 343.648 80.374 343.648 88.712 352.264 88.712 352.264 97.327 360.601 97.327 360.601 88.712 369.217 88.712"/></g><g><linearGradient id="SVGID_14_" x1="80.591" x2="51.886" y1="179.904" y2="179.904" gradientUnits="userSpaceOnUse"><stop offset="0" style="stop-color:#0096ff"/><stop offset=".632" style="stop-color:#36c2ff"/><stop offset="1" style="stop-color:#50d7ff"/></linearGradient><path fill="url(#SVGID_14_)" d="M70.093,166.377v8.847v0.826h0.826h8.847v7.709h-8.847h-0.826v0.825v8.848h-7.709v-8.848v-0.825 h-0.825h-8.847v-7.709h8.847h0.825v-0.826v-8.847H70.093 M70.919,165.552h-9.36v9.672h-9.672v9.36h9.672v9.673h9.36v-9.673 h9.672v-9.36h-9.672V165.552L70.919,165.552z"/></g><g><linearGradient id="SVGID_15_" x1="330.455" x2="276.396" y1="75.238" y2="75.238" gradientUnits="userSpaceOnUse"><stop offset="0" style="stop-color:#0096ff"/><stop offset=".632" style="stop-color:#36c2ff"/><stop offset="1" style="stop-color:#50d7ff"/></linearGradient><path fill="url(#SVGID_15_)" d="M310.686,49.763v16.662v1.555h1.555h16.66v14.519h-16.66h-1.555v1.555v16.661h-14.52V84.052 v-1.555h-1.555H277.95V67.979h16.661h1.555v-1.555V49.763H310.686 M312.24,48.208h-17.629v18.216h-18.216v17.628h18.216v18.216 h17.629V84.052h18.215V66.424H312.24V48.208L312.24,48.208z"/></g><g><g><linearGradient id="SVGID_16_" x1="49.629" x2="2.392" y1="176.231" y2="176.231" gradientUnits="userSpaceOnUse"><stop offset="0" style="stop-color:#0096ff"/><stop offset=".632" style="stop-color:#36c2ff"/><stop offset="1" style="stop-color:#50d7ff"/></linearGradient><polygon fill="url(#SVGID_16_)" points="49.629 168.529 33.712 168.529 33.712 152.613 18.309 152.613 18.309 168.529 2.392 168.529 2.392 183.933 18.309 183.933 18.309 199.85 33.712 199.85 33.712 183.933 49.629 183.933"/></g></g><g><linearGradient id="SVGID_17_" x1="433.243" x2="355.803" y1="22.611" y2="22.611" gradientUnits="userSpaceOnUse"><stop offset="0" style="stop-color:#0096ff"/><stop offset=".632" style="stop-color:#36c2ff"/><stop offset="1" style="stop-color:#50d7ff"/></linearGradient><path fill="url(#SVGID_17_)" d="M404.922-13.883V9.984v2.227h2.228h23.867V33.01h-23.867h-2.228v2.228v23.867h-20.798V35.237 V33.01h-2.228h-23.867V12.211h23.867h2.228V9.984v-23.867H404.922 M407.149-16.11h-25.253V9.984h-26.094v25.253h26.094v26.094 h25.253V35.237h26.094V9.984h-26.094V-16.11L407.149-16.11z"/></g><g><linearGradient id="SVGID_18_" x1="433.134" x2="400.396" y1="109.698" y2="109.698" gradientUnits="userSpaceOnUse"><stop offset="0" style="stop-color:#0096ff"/><stop offset=".632" style="stop-color:#36c2ff"/><stop offset="1" style="stop-color:#50d7ff"/></linearGradient><polygon fill="url(#SVGID_18_)" points="433.134 104.36 422.103 104.36 422.103 93.329 411.427 93.329 411.427 104.36 400.396 104.36 400.396 115.036 411.427 115.036 411.427 126.067 422.103 126.067 422.103 115.036 433.134 115.036"/></g><g><linearGradient id="SVGID_19_" x1="102.199" x2="97.358" y1="182.733" y2="182.733" gradientUnits="userSpaceOnUse"><stop offset="0" style="stop-color:#0096ff"/><stop offset=".632" style="stop-color:#36c2ff"/><stop offset="1" style="stop-color:#50d7ff"/></linearGradient><circle cx="99.779" cy="182.733" r="2.42" fill="url(#SVGID_19_)"/></g><g><g><linearGradient id="SVGID_20_" x1="498.047" x2="441.32" y1="97.746" y2="97.746" gradientUnits="userSpaceOnUse"><stop offset="0" style="stop-color:#0096ff"/><stop offset=".632" style="stop-color:#36c2ff"/><stop offset="1" style="stop-color:#50d7ff"/></linearGradient><polygon fill="url(#SVGID_20_)" points="498.047 88.498 478.933 88.498 478.933 69.383 460.436 69.383 460.436 88.498 441.32 88.498 441.32 106.995 460.436 106.995 460.436 126.109 478.933 126.109 478.933 106.995 498.047 106.995"/></g></g></g></g></g></svg>